<svg xmlns="http://www.w3.org/2000/svg" viewBox="0 0 486.7 486.7"><title>Cal</title><g id="Layer_2" data-name="Layer 2"><path d="M393.35,184.35v242h-301v-242h301m28-28h-357v289.5a8.51,8.51,0,0,0,8.5,8.5h340a8.51,8.51,0,0,0,8.5-8.5V156.35Z"/><path d="M412.85,59.35H395.21v35.5a11.38,11.38,0,0,1-11.36,11.36H361.17A11.38,11.38,0,0,1,349.8,94.85V59.35H266.05v35.5a11.38,11.38,0,0,1-11.36,11.36H232a11.38,11.38,0,0,1-11.37-11.36V59.35H136.9v35.5a11.38,11.38,0,0,1-11.37,11.36H102.85A11.38,11.38,0,0,1,91.49,94.85V59.35H72.85a8.51,8.51,0,0,0-8.5,8.5v77.5h357V67.85A8.51,8.51,0,0,0,412.85,59.35Z"/><path d="M144.9,377.61V357.49l18.37-16.61c31-27.77,46.13-43.73,46.57-60.35,0-11.58-7-20.76-23.4-20.76-12.24,0-22.95,6.12-30.39,11.8l-9.4-23.83c10.72-8.09,27.33-14.65,46.57-14.65,32.14,0,49.85,18.8,49.85,44.6,0,23.83-17.27,42.85-37.83,61.22l-13.11,10.93v.44h53.56v27.33Z"/><path d="M308.66,265h-.44l-27.11,12.9L275.64,253l37.61-17.49h27.54V377.61H308.66Z"/><rect x="94.35" y="32.35" width="39.69" height="71" rx="8.5" ry="8.5"/><rect x="223.35" y="32.35" width="39.69" height="71" rx="8.5" ry="8.5"/><rect x="352.35" y="32.35" width="39.69" height="71" rx="8.5" ry="8.5"/></g></svg>