<svg width="486.7" height="486.7" xmlns="http://www.w3.org/2000/svg">
 <title>Cal</title>

 <g>
  <title>background</title>
  <rect fill="none" id="canvas_background" height="402" width="582" y="-1" x="-1"/>
 </g>
 <g>
  <title>Layer 1</title>
  <g id="Layer_2">
   <path fill="#ffffff" id="svg_1" d="m393.35,184.35l0,242l-301,0l0,-242l301,0m28,-28l-357,0l0,289.5a8.51,8.51 0 0 0 8.5,8.5l340,0a8.51,8.51 0 0 0 8.5,-8.5l0,-289.5z"/>
   <path fill="#ffffff" id="svg_2" d="m412.85,59.35l-17.64,0l0,35.5a11.38,11.38 0 0 1 -11.36,11.36l-22.68,0a11.38,11.38 0 0 1 -11.37,-11.36l0,-35.5l-83.75,0l0,35.5a11.38,11.38 0 0 1 -11.36,11.36l-22.69,0a11.38,11.38 0 0 1 -11.37,-11.36l0,-35.5l-83.73,0l0,35.5a11.38,11.38 0 0 1 -11.37,11.36l-22.68,0a11.38,11.38 0 0 1 -11.36,-11.36l0,-35.5l-18.64,0a8.51,8.51 0 0 0 -8.5,8.5l0,77.5l357,0l0,-77.5a8.51,8.51 0 0 0 -8.5,-8.5z"/>
   <path fill="#ffffff" id="svg_3" d="m144.9,377.61l0,-20.12l18.37,-16.61c31,-27.77 46.13,-43.73 46.57,-60.35c0,-11.58 -7,-20.76 -23.4,-20.76c-12.24,0 -22.95,6.12 -30.39,11.8l-9.4,-23.83c10.72,-8.09 27.33,-14.65 46.57,-14.65c32.14,0 49.85,18.8 49.85,44.6c0,23.83 -17.27,42.85 -37.83,61.22l-13.11,10.93l0,0.44l53.56,0l0,27.33l-100.79,0z"/>
   <path fill="#ffffff" id="svg_4" d="m308.66,265l-0.44,0l-27.11,12.9l-5.47,-24.9l37.61,-17.49l27.54,0l0,142.1l-32.13,0l0,-112.61z"/>
   <rect fill="#ffffff" id="svg_5" ry="8.5" rx="8.5" height="71" width="39.69" y="32.35" x="94.35"/>
   <rect fill="#ffffff" id="svg_6" ry="8.5" rx="8.5" height="71" width="39.69" y="32.35" x="223.35"/>
   <rect fill="#ffffff" id="svg_7" ry="8.5" rx="8.5" height="71" width="39.69" y="32.35" x="352.35"/>
  </g>
 </g>
</svg>