<svg xmlns="http://www.w3.org/2000/svg" viewBox="0 0 486.7 486.7"><defs><style>.cls-1{fill:#fff;}</style></defs><title>Hoover 1</title><g id="Layer_2" data-name="Layer 2"><path d="M265.35,223.93V344a83,83,0,0,0-100.94,54.31h-5.06v-11h-9v-11h22v-232h13.42A79.58,79.58,0,0,1,265.35,223.93Z"/><path d="M364.93,411.75V443c0,2.71-1.37,4.9-3.08,4.9H322.21a80.94,80.94,0,0,0,3.71-27.9,79.92,79.92,0,0,0-9.32-34.37L362.72,407C364,407.64,364.93,409.57,364.93,411.75Z"/><path class="cls-1" d="M243,444.93A26.92,26.92,0,1,1,269.91,418,26.95,26.95,0,0,1,243,444.93Z"/><path d="M243,400.52A17.5,17.5,0,1,1,225.5,418,17.52,17.52,0,0,1,243,400.52m0-18.84A36.34,36.34,0,1,0,279.33,418,36.34,36.34,0,0,0,243,381.68Z"/><path d="M319.87,418.72a76.71,76.71,0,0,1-4.47,29.22H282a4,4,0,0,1-3.36-6.27,42.74,42.74,0,1,0-71.23,0,4,4,0,0,1-3.31,6.29H171.3a76.59,76.59,0,1,1,148.57-29.22Z"/><path class="cls-1" d="M194.6,251V356.88a82.42,82.42,0,0,0-8.5,7.08V251a4.25,4.25,0,1,1,8.5,0Z"/><rect x="172.35" y="37.35" width="22" height="153"/><rect x="145.85" y="5.85" width="16" height="65" transform="translate(192.2 -115.5) rotate(90)"/><rect x="143.45" y="20.31" width="16.1" height="74.26" transform="translate(281.7 -38.99) rotate(122.71)"/><circle cx="186.35" cy="38.35" r="8"/><circle cx="121.35" cy="38.35" r="8"/><path d="M417.35,37.35v1a8.26,8.26,0,0,0-.06-1Z"/></g></svg>