<svg xmlns="http://www.w3.org/2000/svg" viewBox="0 0 486.7 486.7"><title>Hoover 2</title><g id="Layer_2" data-name="Layer 2"><path d="M417.35,37.35v1a8.26,8.26,0,0,0-.06-1Z"/><path d="M120,349.54A52.42,52.42,0,1,0,172.37,402,52.42,52.42,0,0,0,120,349.54Zm0,77.92a25.5,25.5,0,1,1,25.5-25.5A25.5,25.5,0,0,1,120,427.46Z"/><path d="M394.2,418.3a9.15,9.15,0,0,0-9.16,9.16h65.81a9.16,9.16,0,0,0-9.17-9.16H422.35c.07-10.68,1.29-203.07,0-301-.29-22-8.49-39.79-24.36-52.89-49.4-40.76-156.33-22.11-160.86-21.29l-.29.06a108.14,108.14,0,0,0-25.22,10.37c-17.59,10-29,23.46-33,39-7.93,30.9,12.59,69,61,113.19S310,289.32,305.47,323.17c-3.42,25.43-21.76,41.05-31,47.42A127.6,127.6,0,0,0,147.72,258H52a22.68,22.68,0,0,0-22.69,22.69V425.09a22.67,22.67,0,0,0,22.67,22.67H81.1a60.06,60.06,0,1,1,77.72,0h93.74A22.74,22.74,0,0,0,275.31,425V385.54c0-1.21,0-2.41-.05-3.61,7.23-4.13,35.33-22.32,40.11-57.3,5.09-37.32-18.12-79.81-69-126.28C221.54,175.68,204.26,154.69,195,136c-7.5-15.17-9.75-28.92-6.7-40.87,7.79-30.48,48.12-41.46,50.75-42.14,4.75-.82,107.59-17.93,152.57,19.2,13.5,11.14,20.47,26.38,20.72,45.31,1.29,98,.06,291,0,300.85ZM265.31,425a12.76,12.76,0,0,1-12.75,12.74H180.19a70.06,70.06,0,1,0-120.46,0H51.94a12.68,12.68,0,0,1-12.67-12.67V280.64A12.7,12.7,0,0,1,52,268h95.76A117.59,117.59,0,0,1,265.31,385.54Z"/><path d="M384.42,432h67a9.17,9.17,0,0,1,9.17,9.17v13.25a0,0,0,0,1,0,0H375.26a0,0,0,0,1,0,0V441.12A9.17,9.17,0,0,1,384.42,432Z"/></g></svg>