<svg xmlns="http://www.w3.org/2000/svg" viewBox="0 0 486.7 486.7"><defs><style>.cls-1{fill:#fff;}.cls-2{fill:none;stroke:#000;stroke-linecap:round;stroke-miterlimit:10;stroke-width:18px;}</style></defs><title>Money</title><g id="Layer_2" data-name="Layer 2"><path d="M373.85,268.85h-9.5v-72a8.51,8.51,0,0,0-8.5-8.5H312.32l0,.12h-81l0-.12h-98L257.05,143v15a41.45,41.45,0,0,1,30.3.28V113c0-5.31-3.94-9.61-8.81-9.61L37.16,188.1a8.23,8.23,0,0,0-4.65,1.45l-.06,0a9.84,9.84,0,0,0-4.1,8.13V445.85a8.51,8.51,0,0,0,8.5,8.5h319a8.51,8.51,0,0,0,8.5-8.5v-93h9.5a8.51,8.51,0,0,0,8.5-8.5v-67A8.51,8.51,0,0,0,373.85,268.85Zm-37.5,157.5h-280v-210h280v52.5h-64.5a8.51,8.51,0,0,0-8.5,8.5v67a8.51,8.51,0,0,0,8.5,8.5h64.5Zm28-91.5h-83v-48h83Z"/><circle cx="378.85" cy="103.85" r="72.5"/><path class="cls-1" d="M349,146.87v-7.05c9.44-4.79,16.07-14.09,16.07-24.67a59.66,59.66,0,0,0-.71-9.87H349.84V96.4H363a94.52,94.52,0,0,1-1.55-15.23c0-16.63,11.42-27.49,27.07-27.49,7.34,0,12.41,1.69,15.37,3.52L401,66.51a25.65,25.65,0,0,0-12.55-2.82c-11,0-15.51,7.61-15.51,17.62a75.21,75.21,0,0,0,1.7,15.09H395v8.88H375.78c.43,5.36.71,10.72-.56,15.79a29.33,29.33,0,0,1-9.73,15.23v.28h42v10.29Z"/><line class="cls-2" x1="88.35" y1="240.35" x2="88.35" y2="404.35"/><circle class="cls-1" cx="349.35" cy="310.85" r="8"/><path d="M349.35,302.85a8,8,0,1,0,8,8,8,8,0,0,0-8-8Z"/><path d="M307.19,186.35a36,36,0,0,0-70.68,0Z"/></g></svg>