<svg xmlns="http://www.w3.org/2000/svg" viewBox="0 0 486.7 486.7"><defs><style>.cls-1{stroke:#000;stroke-miterlimit:10;stroke-width:6.54px;}</style></defs><title>Mower 2</title><g id="Layer_2" data-name="Layer 2"><path class="cls-1" d="M58.18,42.6l51.27,4.13L226.64,309.27,237.3,311,115.84,38l-.58-.05L58.93,33.36a4.64,4.64,0,1,0-.75,9.24Z"/><path d="M123.93,275.46h1.26A80.9,80.9,0,0,1,194.73,317l2.47,4.45,5,1,203.11,39a56.81,56.81,0,0,0-33.68,75.36H258.74q1.65-2.85,3-5.85a69.9,69.9,0,0,0-60.65-98.78c-.94,0-1.89-.06-2.82-.06a69.84,69.84,0,0,0-60.48,104.69H124.14c-1.94,0-3.88-.07-5.78-.2a80.69,80.69,0,0,1-74.91-81.6l0-.4,0-.8a1.77,1.77,0,0,0,0-.24V276.93a1.47,1.47,0,0,1,1.47-1.47h79m0-10.9h-79a12.37,12.37,0,0,0-12.37,12.37v76.68c0,.25,0,.5,0,.74s0,.22,0,.33a91.62,91.62,0,0,0,85.05,92.85q3.24.23,6.54.23h37.14a58.89,58.89,0,0,1,37-104.69c.79,0,1.59,0,2.39.05A58.88,58.88,0,0,1,235.3,447.76H392a45.8,45.8,0,0,1,26.49-78.18,6.23,6.23,0,0,0,5.56-6.15v-4.35a6.16,6.16,0,0,0-5-6.06L204.27,311.74a91.55,91.55,0,0,0-79-47.17Z"/><path d="M117.6,445.35q3.24.22,6.54.23H117.6Z"/><path d="M323.69,304.91a59.78,59.78,0,0,1,47.55,23.46l-78.23-15a59.83,59.83,0,0,1,30.68-8.42m0-10.91A70.72,70.72,0,0,0,269,319.82l122.24,23.49A70.91,70.91,0,0,0,323.69,294Z"/><path d="M198.29,349.54A52.42,52.42,0,1,0,250.71,402,52.42,52.42,0,0,0,198.29,349.54Zm0,77.92a25.5,25.5,0,1,1,25.5-25.5A25.5,25.5,0,0,1,198.29,427.46Z"/><path d="M424,375.71A39.34,39.34,0,1,0,463.35,415,39.33,39.33,0,0,0,424,375.71Zm0,58.47A19.14,19.14,0,1,1,443.15,415,19.14,19.14,0,0,1,424,434.18Z"/></g></svg>