<svg xmlns="http://www.w3.org/2000/svg" viewBox="0 0 486.7 486.7"><title>Pressd Icon</title><g id="Layer_2" data-name="Layer 2"><path d="M116.58,51.58c.61-5.08,2.07-9.66,5.94-13.43,9.87-9.63,25.57-8.51,33.12,3.08,11.15,17.1,21.83,34.5,32.7,51.78L213.47,133,242,178.24c.23.36.53.69,1.06,1.37,2.61-4,5.16-7.72,7.57-11.55q14.91-23.64,29.74-47.31c13.66-21.72,27.24-43.49,41-65.12,3.95-6.19,7.07-13,12.38-18.24,6.4-6.35,16.77-7.6,25.14-3.06a21.13,21.13,0,0,1,10.41,22.12c-1,5.7-1.17,11.52-1.76,17.27-.82,8.09-1.7,16.16-2.52,24.25-.54,5.43-1,10.87-1.51,16.3-.83,8.31-1.74,16.61-2.55,24.92-.76,7.76-1.4,15.53-2.16,23.29-.8,8.08-1.71,16.16-2.52,24.24-.54,5.43-1,10.87-1.51,16.31-.83,8.3-1.74,16.6-2.55,24.91-.76,7.76-1.4,15.53-2.16,23.29-.8,8.08-1.71,16.16-2.52,24.24-.54,5.43-1,10.88-1.51,16.31-.83,8.3-1.75,16.6-2.55,24.91-.77,7.87-1.4,15.76-2.17,23.63s-1.7,15.93-2.51,23.9c-.55,5.44-1,10.88-1.51,16.31-.83,8.31-1.75,16.6-2.55,24.91-.77,7.87-1.42,15.76-2.17,23.63A131.76,131.76,0,0,1,331.09,443c-1.25,6.13-5.4,9.81-11.45,11.34H305.52c-2.41-.37-4.83-.7-7.23-1.11-21.32-3.64-39.41-12.89-52.68-30.47-2.55-3.38-2.52-3.34-5.1.12-8.28,11.08-19,19-31.67,24.38-9.09,3.89-18.63,5.88-28.38,7.08H166.34c-7.56-2.25-11.35-7.3-11.8-15.2-.13-2.3-.44-4.65-.7-7-1.06-9.51-2.15-19-3.2-28.53-.75-6.86-1.42-13.74-2.19-20.6-1-9.29-2.13-18.58-3.19-27.86-.85-7.41-1.45-14.86-2.57-22.22-1.24-8.1,2-15.28,8.74-18.11,1.17-.49,2.76-.65,2.52-2.57-.26-2.08-1.9-1.49-3.13-1.59a13.84,13.84,0,0,1-12.31-12.89c-.37-7.39,3.3-12,9.68-14.9,1.21-.55,2.48-1,2.44-2.79s-1.58-1.64-2.61-2.07c-5.18-2.18-8.79-5.69-9.64-11.46-.49-3.3-.85-6.62-1.18-9.94-.74-7.54-1.41-15.08-2.15-22.62-.83-8.31-1.72-16.61-2.57-24.91-.73-7.21-1.42-14.41-2.16-21.62-.83-8.19-1.71-16.38-2.54-24.58-.75-7.31-1.43-14.63-2.19-21.94-.81-7.86-1.71-15.71-2.51-23.58-.76-7.53-1.42-15.08-2.16-22.62q-1.24-12.45-2.57-24.91c-.57-5.42-1.18-10.84-1.77-16.26ZM335.24,91.36c-.73,1-1.34,1.78-1.85,2.6Q317,120,300.61,146.09c-10,15.87-19.86,31.79-30,47.57-1.51,2.35-1.13,3.49.65,5.3,9.47,9.65,12,21.45,9.62,34.34-2.27,12.36-9.59,21.15-20.72,26.8a3.57,3.57,0,0,0-2.2,3.68q.09,18.48,0,37a3.86,3.86,0,0,0,2.3,4,40,40,0,0,1,12.48,9.86c8.15,9.42,10.31,20.49,8.3,32.29s-8.83,20.81-19.4,26.69c-2,1.13-2.53,2.37-2.05,4.6.69,3.27,1.36,6.53,2.35,9.73,5.94,19.18,19,30.39,38.4,34.76,1.8.41,1.92-.27,2.35-1.68.76-2.43.43-4.89.71-7.32q1.35-11.94,2.52-23.91c.77-7.87,1.4-15.76,2.16-23.63.81-8.31,1.73-16.61,2.56-24.91.54-5.43,1-10.88,1.53-16.31.81-8,1.71-15.93,2.49-23.91s1.4-15.76,2.17-23.63c.8-8.31,1.72-16.61,2.55-24.91.54-5.43,1-10.87,1.54-16.31.8-8,1.7-15.93,2.48-23.91s1.4-15.76,2.17-23.63c.8-8.19,1.73-16.38,2.54-24.57.77-7.76,1.42-15.53,2.2-23.29s1.72-15.71,2.5-23.58C333.68,108.7,334.42,100.2,335.24,91.36Zm-183.64.89c-.74.69-.48,1.38-.41,2,.85,8.52,1.74,17,2.61,25.57.72,7,1.4,14,2.13,20.93.84,8,1.75,15.93,2.56,23.9.77,7.53,1.4,15.08,2.17,22.61,1,10,2.18,19.91,3.2,29.88,1,9.52,1.84,19.06,2.71,28.59a2.13,2.13,0,0,0,1.76,2.06c6.75,2.37,10.73,6.92,11.08,14.31.14,2.81,1.19,3.5,4,2,8.75-4.91,17.63-9.62,26.52-14.29,1.9-1,1.59-1.87.69-3.37-9.84-16.3-8-34.41,5-48.36,1.2-1.3,1.37-2.12.38-3.68Q202.41,173,189,151.62q-12.18-19.41-24.34-38.84C160.38,105.92,156,99.12,151.6,92.25ZM228,288.59c0-4.15-.1-8.3,0-12.44.09-2.7-.25-3.82-3.17-2.1-3.94,2.33-8.09,4.28-12.13,6.44q-14,7.5-28,15.05c-.88.47-1.68.82-1.53,2.22.89,8.76,1.38,17.57,2.55,26.28,1,7.36-1.65,14-8.25,17-2.86,1.3-3,3-2.54,5.55.55,3.06.76,6.18,1.09,9.28.74,7.09,1.43,14.18,2.21,21.27,1,9.29,2.1,18.58,3.18,27.86.63,5.42,1.34,10.82,2,16.24.16,1.42.58,1.84,2.15,1.51,10.21-2.09,19.39-6.36,26.71-13.74,8.45-8.54,12.41-19.41,14.43-31.08.43-2.45-.42-3.57-2.64-4.81-12-6.74-18.68-17.3-19.43-30.87-.91-16.65,6.14-29.37,21.19-37.2a3.55,3.55,0,0,0,2.24-3.66C227.89,297.11,228,292.85,228,288.59Zm15.27,61.3a10.32,10.32,0,0,0,10.24-10.53c-.18-6.42-4.53-9.92-10.49-10.35-5.08-.37-10.7,5.37-10.39,10.62S236.63,349.82,243.23,349.89ZM253.51,225.5a10.78,10.78,0,0,0-10.57-10.66c-5,.08-10.31,5.38-10.43,10.45-.12,5.4,4.87,10.24,10.64,10.29A10.46,10.46,0,0,0,253.51,225.5Z"/></g></svg>