<svg xmlns="http://www.w3.org/2000/svg" viewBox="0 0 486.7 486.7"><title>Tools 2</title><g id="Layer_2" data-name="Layer 2"><path d="M58.94,72.81l46.15,15.38.09,12.6,0,4.1,2.89,2.9,94.13,94.13-15.7,15.69L92.41,123.48l-2.89-2.89-4.1,0-12.6-.1L57.44,74.31l1.5-1.5m-2.7-11.44L46,71.61,65.59,130.4l19.75.16,101.2,101.2,29.84-29.84-101.2-101.2L115,81,56.24,61.37Z"/><path d="M429.86,387.83c-.35-.37-.7-.73-1.06-1.09L298.18,256.12,288,266.35,416.63,395l.19.2a7.25,7.25,0,0,1-10.24,10.24l-.19-.19L277.7,276.6l-16.48,16.48L389.91,421.76l.18.19a7.24,7.24,0,0,1-10.23,10.24l-.2-.19L251,303.32l-10.23,10.23L371.37,444.18l1.08,1.05a40.62,40.62,0,0,0,57.41-57.4Z"/><path d="M360.07,41,316.4,84.64l-4.08,4.08,1.48,5.58,14.92,55.91,1.49,5.58,5.58,1.5,55.89,15,5.57,1.5,4.09-4.09,44.45-44.4A77.26,77.26,0,0,1,346,191.54l-5.77-1.79L336,194,92.79,437.21l-.87.83a30.61,30.61,0,0,1-43.26-43.26c.27-.29.55-.59.83-.87L292.68,150.72l4.27-4.27-1.79-5.76A77.27,77.27,0,0,1,360.07,41M71.13,435.87a20.3,20.3,0,1,0-14.36-5.94,20.18,20.18,0,0,0,14.36,5.94M368.94,30.53a87.25,87.25,0,0,0-83.33,113.12L42.42,386.84c-.36.36-.7.72-1.05,1.09a40.62,40.62,0,0,0,57.4,57.4l1.09-1.05L343.05,201.09a87.26,87.26,0,0,0,111.73-98.86l-60.51,60.44-55.88-15L323.47,91.72l60-60a87.88,87.88,0,0,0-14.57-1.21ZM71.13,425.87a10.31,10.31,0,1,1,7.3-3,10.24,10.24,0,0,1-7.3,3Z"/></g></svg>