<svg xmlns="http://www.w3.org/2000/svg" viewBox="0 0 486.7 486.7"><title>Tools 1</title><g id="Layer_2" data-name="Layer 2"><polygon points="216.38 201.92 115.18 100.72 115.03 80.97 56.24 61.37 46 71.61 65.59 130.4 85.34 130.56 186.54 231.76 216.38 201.92"/><path d="M429.86,387.83c-.35-.37-.7-.73-1.06-1.09L298.18,256.12,288,266.35,416.63,395l.19.2a7.25,7.25,0,0,1-10.24,10.24l-.19-.19L277.7,276.6l-16.48,16.48L389.91,421.76l.18.19a7.24,7.24,0,0,1-10.23,10.24l-.2-.19L251,303.32l-10.23,10.23L371.37,444.18l1.08,1.05a40.62,40.62,0,0,0,57.41-57.4Z"/><path d="M454.78,102.23l-60.51,60.44-55.88-15L323.47,91.72l60-60a87.27,87.27,0,0,0-97.9,111.91L42.42,386.84c-.36.36-.7.72-1.05,1.09a40.62,40.62,0,0,0,57.4,57.4l1.09-1.05L343.05,201.09a87.26,87.26,0,0,0,111.73-98.86Zm-395.35,325a16.55,16.55,0,1,1,23.41,0A16.56,16.56,0,0,1,59.43,427.26Z"/></g></svg>