<?xml version="1.0" encoding="iso-8859-1"?>
<!-- Generator: Adobe Illustrator 19.0.0, SVG Export Plug-In . SVG Version: 6.00 Build 0)  -->
<svg version="1.1" id="Capa_1" xmlns="http://www.w3.org/2000/svg" xmlns:xlink="http://www.w3.org/1999/xlink" x="0px" y="0px"
	 viewBox="0 0 512 512" style="enable-background:new 0 0 512 512;" xml:space="preserve">
<path style="fill:#303C42;" d="M447.02,406.313c-4.581-24.784-26.264-43.646-52.353-43.646h-85.333
	c-17.246,0-32.448,8.363-42.203,21.102l-11.195-28.781l7.909-3.164c21.156-8.458,34.823-28.656,34.823-51.438
	c0-10.042-2.729-19.896-7.896-28.5L182.115,90.813c-8.083-13.503-22.208-21.341-37.318-21.616L133.75,40.802
	C124.104,16.01,100.698,0,74.115,0H32C14.354,0,0,14.354,0,32s14.354,32,32,32h42.115l7.661,19.711
	c-4.97,1.815-9.283,5.12-11.745,9.852c-2.823,5.427-3.188,11.802-1,17.521l98.458,255.99c2.073,5.365,6.104,9.594,11.375,11.896
	c2.75,1.198,5.646,1.792,8.542,1.792c2.677,0,5.365-0.51,7.927-1.531l1.188-0.475L213.333,422v10.6
	C200.642,440,192,453.608,192,469.333C192,492.865,211.135,512,234.667,512c15.725,0,29.333-8.642,36.733-21.333h157.232
	C433.049,503.056,444.779,512,458.667,512c13.888,0,25.617-8.944,30.035-21.333h12.632c5.896,0,10.667-4.771,10.667-10.667
	C512,442.15,483.579,411.121,447.02,406.313z"/>
<path style="fill:#F78F1E;" d="M309.333,384h85.333c13.888,0,25.617,8.944,30.035,21.333H279.298
	C283.716,392.944,295.445,384,309.333,384z"/>
<path style="opacity:0.2;fill:#FFFFFF;enable-background:new    ;" d="M326.96,384h-17.626c-13.888,0-25.617,8.944-30.035,21.333
	h30.035C311.926,392.944,318.81,384,326.96,384z"/>
<path style="opacity:0.1;fill:#010101;enable-background:new    ;" d="M394.667,384H377.04c8.15,0,15.034,8.944,17.626,21.333
	h30.035C420.284,392.944,408.555,384,394.667,384z"/>
<path style="fill:#818181;" d="M32,42.667c-5.885,0-10.667-4.781-10.667-10.667S26.115,21.333,32,21.333h42.115
	c17.719,0,33.323,10.677,39.76,27.198l9.458,24.313L102.46,78.06L93.99,56.26c-3.167-8.135-11.156-13.594-19.875-13.594H32z"/>
<polygon style="fill:#303C42;" points="88.927,103.427 86.665,94.289 86.668,94.288 88.948,103.417 "/>
<path style="fill:#BDAAA4;" d="M88.958,103.417l49.177-12.292c10.042-2.542,20.365,1.781,25.688,10.656l108.656,181.083
	c3.177,5.292,4.854,11.344,4.854,17.521c0,14.01-8.406,26.427-21.406,31.625l-68.521,27.396L88.958,103.417z"/>
<path style="opacity:0.1;fill:#010101;enable-background:new    ;" d="M266.594,294.94l-47.85,19.13
	c-11.371,4.547-24.266-1.082-28.661-12.513L111.695,97.733l-22.737,5.684l98.448,255.99l68.521-27.396
	c13-5.198,21.406-17.615,21.406-31.625c0-3.651-0.759-7.194-1.895-10.626C272.818,291.88,269.852,293.638,266.594,294.94z"/>
<polygon style="fill:#818181;" points="236.134,362.908 252.632,405.333 229.734,405.333 216.32,370.833 "/>
<circle style="fill:#546F7A;" cx="234.667" cy="469.333" r="21.333"/>
<path style="opacity:0.1;fill:#010101;enable-background:new    ;" d="M243.375,449.958c1.21,2.674,1.958,5.589,1.958,8.708
	c0,11.76-9.573,21.333-21.333,21.333c-3.12,0-6.034-0.749-8.708-1.958c3.349,7.406,10.734,12.625,19.375,12.625
	c11.76,0,21.333-9.573,21.333-21.333C256,460.693,250.781,453.307,243.375,449.958z"/>
<path style="fill:#F78F1E;" d="M234.667,426.667h202.667c25.76,0,47.302,18.354,52.26,42.667h-212.26
	C277.333,445.802,258.198,426.667,234.667,426.667z"/>
<path style="opacity:0.1;fill:#010101;enable-background:new    ;" d="M437.333,426.667h-30.927c25.76,0,47.302,18.354,52.26,42.667
	h30.927C484.635,445.021,463.094,426.667,437.333,426.667z"/>
<linearGradient id="SVGID_1_" gradientUnits="userSpaceOnUse" x1="-34.4663" y1="625.6626" x2="-33.0853" y2="624.2766" gradientTransform="matrix(21.3333 0 0 -21.3333 996.3334 13791.667)">
	<stop  offset="0" style="stop-color:#010101;stop-opacity:0.1"/>
	<stop  offset="1" style="stop-color:#010101;stop-opacity:0"/>
</linearGradient>
<path style="fill:url(#SVGID_1_);" d="M294.861,469.333l-29.464-29.464c7.355,7.669,11.936,18.021,11.936,29.464H294.861z"/>
<linearGradient id="SVGID_2_" gradientUnits="userSpaceOnUse" x1="-49.5391" y1="639.2354" x2="-21.6124" y2="626.212" gradientTransform="matrix(21.3333 0 0 -21.3333 996.3334 13791.667)">
	<stop  offset="0" style="stop-color:#FFFFFF;stop-opacity:0.2"/>
	<stop  offset="1" style="stop-color:#FFFFFF;stop-opacity:0"/>
</linearGradient>
<path style="fill:url(#SVGID_2_);" d="M447.02,406.313c-4.581-24.784-26.264-43.646-52.353-43.646h-85.333
	c-17.246,0-32.448,8.363-42.203,21.102l-11.195-28.781l7.909-3.164c21.156-8.458,34.823-28.656,34.823-51.438
	c0-10.042-2.729-19.896-7.896-28.5L182.115,90.813c-8.083-13.503-22.208-21.341-37.318-21.616L133.75,40.802
	C124.104,16.01,100.698,0,74.115,0H32C14.354,0,0,14.354,0,32s14.354,32,32,32h42.115l7.661,19.711
	c-4.97,1.815-9.283,5.12-11.745,9.852c-2.823,5.427-3.188,11.802-1,17.521l98.458,255.99c2.073,5.365,6.104,9.594,11.375,11.896
	c2.75,1.198,5.646,1.792,8.542,1.792c2.677,0,5.365-0.51,7.927-1.531l1.188-0.475L213.333,422v10.6
	C200.642,440,192,453.608,192,469.333C192,492.865,211.135,512,234.667,512c15.725,0,29.333-8.642,36.733-21.333h157.232
	C433.049,503.056,444.779,512,458.667,512c13.888,0,25.617-8.944,30.035-21.333h12.632c5.896,0,10.667-4.771,10.667-10.667
	C512,442.15,483.579,411.121,447.02,406.313z"/>
<g>
</g>
<g>
</g>
<g>
</g>
<g>
</g>
<g>
</g>
<g>
</g>
<g>
</g>
<g>
</g>
<g>
</g>
<g>
</g>
<g>
</g>
<g>
</g>
<g>
</g>
<g>
</g>
<g>
</g>
</svg>
