<?xml version="1.0" encoding="utf-8"?>
<!-- Generator: Adobe Illustrator 21.0.2, SVG Export Plug-In . SVG Version: 6.00 Build 0)  -->
<svg version="1.1" id="Layer_1" xmlns="http://www.w3.org/2000/svg" xmlns:xlink="http://www.w3.org/1999/xlink" x="0px" y="0px"
	 viewBox="0 0 105.3 38.5" style="enable-background:new 0 0 105.3 38.5;" xml:space="preserve">
<style type="text/css">
	.st0{fill:#ffffff;stroke:#FFFFFF;stroke-miterlimit:10;}
</style>
<g>
	<path class="st0" d="M20,16.1c0,1.7-0.5,3.3-1.5,4.7c-1,1.4-2.2,2.7-3.7,3.7c-1.5,1.1-3,1.9-4.8,2.6c-1.7,0.7-3.3,1.1-4.8,1.4
		c-0.1,0.3-0.2,0.7-0.3,1.2c-0.1,0.5-0.2,1-0.2,1.6c-0.1,0.6-0.1,1.1-0.2,1.6c0,0.5-0.1,1-0.1,1.3c0,0.4,0,0.7,0,1
		c0,0.3,0,0.6,0,0.9c-0.1,0.3-0.2,0.5-0.4,0.7c-0.2,0.2-0.5,0.4-0.9,0.6c-0.3,0.1-0.6,0.2-1,0.2c-0.4,0-0.7-0.2-0.9-0.5
		c-0.1-0.3-0.2-0.7-0.2-1c0-2.1,0-4,0.1-5.9c0.1-1.9,0.2-3.7,0.5-5.5s0.5-3.6,0.9-5.5c0.4-1.8,0.8-3.8,1.3-5.8
		c0.1-0.3,0.2-0.6,0.3-1.1c0.1-0.4,0.2-0.9,0.4-1.3c0.2-0.4,0.4-0.8,0.6-1.2C5.5,9.6,5.8,9.3,6,9.2C6.2,9.1,6.4,9,6.5,9
		c0.2,0,0.4,0,0.6,0C7.6,8.9,8,9,8.4,9.3s0.5,0.6,0.5,1.1c0,0.3,0,0.6-0.1,1c-0.1,0.4-0.2,0.8-0.3,1.2c-0.1,0.4-0.3,0.8-0.4,1.2
		c-0.1,0.4-0.2,0.8-0.3,1.1c-0.6,2-1,4-1.4,6S5.7,25,5.5,27.1c1.2-0.3,2.4-0.7,3.8-1.2c1.4-0.5,2.7-1.2,3.8-2c1.2-0.8,2.2-1.8,3-2.9
		c0.8-1.1,1.2-2.4,1.2-3.8c0-1.3-0.3-2.4-1-3.5c-0.6-1.1-1.5-2-2.5-2.8c-1-0.8-2.1-1.5-3.3-2C9.3,8.5,8.1,8.2,6.9,8.1
		C6.8,8,6.5,8,6.2,8C5.8,8,5.5,8,5.1,7.9C4.8,7.8,4.5,7.7,4.2,7.6C4,7.4,3.9,7.2,3.9,7c0-0.2,0.1-0.4,0.2-0.7c0.2-0.5,0.4-0.8,0.7-1
		c0.2-0.1,0.6-0.2,1.2-0.2c1.5,0,3,0.3,4.7,0.8c1.6,0.5,3.2,1.3,4.6,2.2c1.4,1,2.6,2.1,3.5,3.5C19.5,13,20,14.5,20,16.1z"/>
	<path class="st0" d="M26.1,24.5c-0.5-0.4-1.1-0.7-1.7-0.9c-0.2,0.6-0.5,1.2-0.7,1.9c-0.3,0.7-0.6,1.3-0.9,2
		c-0.3,0.7-0.7,1.3-1.1,1.9C21.4,30,21,30.5,20.5,31c-0.1,0.1-0.3,0.3-0.5,0.4c-0.2,0.1-0.4,0.2-0.6,0.2c-0.4,0-0.5-0.2-0.5-0.5
		c0-0.2,0-0.3,0.1-0.5c0.1-0.2,0.2-0.3,0.3-0.4c0.8-1.2,1.6-2.3,2.3-3.6c0.7-1.2,1.1-2.5,1.3-3.9c-0.4-0.5-0.7-1-0.8-1.6
		s-0.2-1.2-0.2-1.8c0-0.3,0-0.8,0.1-1.3c0.1-0.5,0.2-1,0.5-1.5s0.5-0.9,0.8-1.3c0.3-0.4,0.7-0.5,1.1-0.5c0.3,0,0.5,0.1,0.7,0.4
		s0.3,0.6,0.4,0.9c0.1,0.3,0.2,0.7,0.2,1.1c0,0.4,0,0.6,0,0.9c0,0.7,0,1.3-0.1,2c0.3,0.5,0.8,0.9,1.3,1.2c0.6,0.3,1.1,0.7,1.6,1
		c0.5,0.4,1,0.8,1.4,1.4c0.4,0.5,0.6,1.3,0.6,2.2c0,0.5-0.1,1-0.2,1.6c-0.2,1-0.4,1.9-0.6,2.9c-0.2,1-0.2,1.9-0.2,2.9
		c0,0.3,0,0.6,0.1,1c0.1,0.4,0.3,0.6,0.7,0.6c0.5,0,1-0.2,1.6-0.7c0.6-0.5,1.2-1,1.8-1.7c0.6-0.6,1.2-1.3,1.7-1.9
		c0.5-0.6,0.9-1.2,1.2-1.6c0.1-0.2,0.3-0.4,0.5-0.6c0.2-0.2,0.4-0.4,0.6-0.4c0.2,0,0.4,0.1,0.5,0.3s0.1,0.4,0.1,0.6
		c0,0.2,0,0.3-0.1,0.5s-0.1,0.3-0.2,0.4c-0.3,0.5-0.8,1.2-1.5,2c-0.6,0.8-1.4,1.6-2.1,2.3c-0.8,0.7-1.5,1.4-2.4,1.9
		c-0.8,0.5-1.6,0.8-2.2,0.8c-0.7,0-1.2-0.2-1.6-0.6c-0.4-0.4-0.7-0.9-0.9-1.5c-0.2-0.6-0.3-1.2-0.4-1.9s-0.1-1.2-0.1-1.7
		c0-0.8,0-1.5,0.1-2.3c0.1-0.7,0.1-1.5,0.1-2.3C26.9,25.5,26.7,24.9,26.1,24.5z"/>
	<path class="st0" d="M39,35c-0.6-0.3-1.1-0.7-1.4-1.2c-0.4-0.5-0.6-1.1-0.8-1.8c-0.2-0.7-0.2-1.4-0.2-2.1c0-0.9,0.2-2.1,0.5-3.4
		c0.4-1.3,0.9-2.6,1.5-3.8c0.7-1.2,1.5-2.3,2.4-3.1c0.9-0.9,1.9-1.3,3-1.3c0.7,0,1.3,0.2,1.7,0.7c0.4,0.5,0.6,1.1,0.6,1.8
		c0,0.7-0.2,1.5-0.6,2.3s-1,1.7-1.6,2.4c-0.6,0.8-1.3,1.5-2.1,2.1c-0.7,0.6-1.4,1-2.1,1.2c-0.1,0.6-0.2,1.2-0.2,1.7
		c0,0.9,0.2,1.7,0.6,2.2c0.4,0.5,1.1,0.8,2.1,0.8c0.9,0,1.7-0.2,2.5-0.5c0.8-0.3,1.5-0.8,2.2-1.3c0.7-0.5,1.3-1.2,1.8-1.8
		c0.6-0.7,1-1.4,1.4-2.1c0.1-0.2,0.3-0.5,0.5-0.7c0.2-0.2,0.4-0.4,0.7-0.4c0.1,0,0.3,0,0.4,0.1c0.1,0.1,0.2,0.2,0.2,0.3
		c0,0.3,0,0.5-0.1,0.7c-0.1,0.2-0.2,0.4-0.3,0.6c-0.5,0.9-1.2,1.8-1.9,2.7c-0.8,0.9-1.6,1.6-2.5,2.2s-1.9,1.2-2.9,1.5
		c-1,0.4-2.1,0.6-3.3,0.6C40.2,35.5,39.5,35.3,39,35z M42.5,21c-0.4,0.6-0.8,1.3-1.2,2.1c-0.4,0.8-0.7,1.6-0.9,2.4
		c-0.2,0.8-0.4,1.4-0.5,1.7c0.4-0.3,0.9-0.6,1.4-1.1c0.5-0.5,1-1,1.4-1.5c0.4-0.6,0.8-1.2,1.1-1.7c0.3-0.6,0.5-1.2,0.5-1.7
		c0-0.2,0-0.4-0.1-0.6c-0.1-0.2-0.3-0.3-0.6-0.3C43.3,20.1,42.9,20.4,42.5,21z"/>
	<path class="st0" d="M56,21.4c0.3,0.8,0.7,1.6,1.2,2.4c0.4,0.8,0.9,1.6,1.3,2.4c0.4,0.8,0.8,1.6,1,2.5c0.3,0.9,0.4,1.7,0.4,2.6
		c0,0.6-0.1,1.1-0.2,1.7c-0.2,0.6-0.4,1.1-0.7,1.5c0.5,0,1.1-0.2,1.7-0.6s1.3-1,2-1.6s1.3-1.3,1.8-1.9c0.6-0.6,1-1.2,1.2-1.6
		c0.1-0.2,0.3-0.4,0.5-0.7s0.4-0.4,0.7-0.4c0.2,0,0.4,0.1,0.5,0.2c0.1,0.2,0.1,0.4,0.1,0.6c0,0.1,0,0.3-0.1,0.4
		c-0.1,0.2-0.2,0.3-0.2,0.4c-0.8,1.2-1.6,2.3-2.4,3.3c-0.9,1-1.8,1.8-2.8,2.4c-1,0.7-2.1,1.2-3.4,1.5c-1.2,0.3-2.6,0.5-4.1,0.5
		c-0.8,0-1.7-0.1-2.6-0.2c-0.9-0.2-1.7-0.5-2.3-1.1c-0.1-0.1-0.2-0.3-0.3-0.4c-0.1-0.1-0.1-0.3-0.1-0.5c0-0.4,0.2-0.6,0.7-0.6
		c0.2,0,0.3,0,0.4,0.1c0.1,0.1,0.2,0.1,0.4,0.2c0.5,0.3,0.9,0.5,1.4,0.6c0.5,0.1,1,0.2,1.5,0.2c1.1,0,1.9-0.3,2.5-1
		c0.6-0.7,0.8-1.5,0.8-2.6c0-0.6-0.1-1.3-0.3-2c-0.2-0.7-0.4-1.4-0.7-2.2c-0.3-0.7-0.6-1.4-0.9-2.1c-0.3-0.7-0.7-1.3-1-1.8
		c-0.2,0.6-0.4,1.2-0.7,1.8c-0.3,0.7-0.6,1.3-1,2c-0.4,0.7-0.7,1.3-1.1,1.9c-0.4,0.6-0.8,1.1-1.2,1.5c-0.1,0.1-0.3,0.3-0.5,0.4
		c-0.2,0.2-0.4,0.2-0.6,0.2c-0.4,0-0.6-0.2-0.6-0.6c0-0.2,0-0.4,0.1-0.6c0.1-0.2,0.2-0.3,0.4-0.5c1.9-2.3,3.3-5,4.2-7.9
		c-0.2-0.7-0.4-1.4-0.4-2.2c0-0.4,0.1-0.9,0.2-1.4c0.1-0.6,0.3-1.1,0.6-1.6c0.2-0.5,0.6-0.9,1-1.3c0.4-0.4,0.8-0.5,1.3-0.5
		c0.2,0,0.5,0.1,0.6,0.2c0.2,0.2,0.3,0.3,0.4,0.6c0.1,0.2,0.2,0.5,0.2,0.7c0,0.2,0.1,0.5,0.1,0.7c0,0.7-0.1,1.4-0.3,2.1
		C56.5,20.1,56.3,20.7,56,21.4z"/>
	<path class="st0" d="M72.1,21.4c0.3,0.8,0.7,1.6,1.2,2.4c0.4,0.8,0.9,1.6,1.3,2.4c0.4,0.8,0.8,1.6,1,2.5c0.3,0.9,0.4,1.7,0.4,2.6
		c0,0.6-0.1,1.1-0.2,1.7c-0.2,0.6-0.4,1.1-0.7,1.5c0.5,0,1.1-0.2,1.7-0.6c0.7-0.5,1.3-1,2-1.6s1.3-1.3,1.8-1.9
		c0.6-0.6,1-1.2,1.2-1.6c0.1-0.2,0.3-0.4,0.5-0.7s0.4-0.4,0.7-0.4c0.2,0,0.4,0.1,0.5,0.2c0.1,0.2,0.1,0.4,0.1,0.6
		c0,0.1,0,0.3-0.1,0.4s-0.2,0.3-0.2,0.4c-0.8,1.2-1.6,2.3-2.4,3.3c-0.9,1-1.8,1.8-2.8,2.4c-1,0.7-2.1,1.2-3.4,1.5
		c-1.2,0.3-2.6,0.5-4.1,0.5c-0.8,0-1.7-0.1-2.6-0.2c-0.9-0.2-1.7-0.5-2.3-1.1c-0.1-0.1-0.2-0.3-0.3-0.4c-0.1-0.1-0.1-0.3-0.1-0.5
		c0-0.4,0.2-0.6,0.7-0.6c0.2,0,0.3,0,0.4,0.1c0.1,0.1,0.2,0.1,0.4,0.2c0.5,0.3,0.9,0.5,1.4,0.6c0.5,0.1,1,0.2,1.5,0.2
		c1.1,0,1.9-0.3,2.5-1s0.8-1.5,0.8-2.6c0-0.6-0.1-1.3-0.3-2c-0.2-0.7-0.4-1.4-0.7-2.2c-0.3-0.7-0.6-1.4-0.9-2.1
		c-0.3-0.7-0.7-1.3-1-1.8c-0.2,0.6-0.4,1.2-0.7,1.8c-0.3,0.7-0.6,1.3-1,2c-0.4,0.7-0.7,1.3-1.1,1.9C66.8,30,66.4,30.5,66,31
		c-0.1,0.1-0.3,0.3-0.5,0.4c-0.2,0.2-0.4,0.2-0.6,0.2c-0.4,0-0.6-0.2-0.6-0.6c0-0.2,0-0.4,0.1-0.6c0.1-0.2,0.2-0.3,0.4-0.5
		c1.9-2.3,3.3-5,4.2-7.9c-0.2-0.7-0.4-1.4-0.4-2.2c0-0.4,0.1-0.9,0.2-1.4c0.1-0.6,0.3-1.1,0.6-1.6c0.2-0.5,0.6-0.9,1-1.3
		c0.4-0.4,0.8-0.5,1.3-0.5c0.2,0,0.5,0.1,0.6,0.2c0.2,0.2,0.3,0.3,0.4,0.6c0.1,0.2,0.2,0.5,0.2,0.7c0,0.2,0.1,0.5,0.1,0.7
		c0,0.7-0.1,1.4-0.3,2.1C72.6,20.1,72.4,20.7,72.1,21.4z"/>
	<path class="st0" d="M90.7,30.9c-0.6,0.6-1.3,1.2-1.9,1.7c-0.7,0.5-1.4,1-2.1,1.4c-0.7,0.4-1.4,0.6-2,0.6c-0.4,0-0.8-0.1-1.1-0.4
		c-0.3-0.3-0.6-0.6-0.8-1c-0.2-0.4-0.3-0.8-0.4-1.3s-0.1-0.8-0.1-1.2c0-1.6,0.4-3.2,1.1-4.7c0.7-1.6,1.7-2.9,2.9-3.9
		c0.5-0.4,1.1-0.8,1.8-1.1c0.7-0.3,1.4-0.5,2-0.5c0.9,0,1.6,0.3,2.1,1c0-0.8,0.1-1.7,0.2-2.8s0.3-2.2,0.5-3.4
		c0.2-1.2,0.5-2.4,0.8-3.6c0.3-1.2,0.7-2.4,1.1-3.5C95,7,95.5,6,95.9,5.1c0.5-0.9,1-1.6,1.6-2.2c0.3-0.3,0.7-0.6,1.1-0.8
		c0.4-0.3,0.8-0.4,1.2-0.4c0.5,0,0.9,0.2,1.2,0.5c0.3,0.3,0.5,0.7,0.7,1.2c0.2,0.5,0.3,1,0.3,1.5c0.1,0.5,0.1,0.9,0.1,1.3
		c0,1.4-0.2,3.1-0.7,5c-0.5,1.9-1.1,3.8-1.8,5.7c-0.7,1.9-1.5,3.8-2.3,5.6c-0.8,1.8-1.6,3.3-2.2,4.6c0,0.3,0,0.8,0,1.5
		c0,0.7,0.1,1.4,0.2,2.2c0.1,0.7,0.3,1.4,0.5,1.9s0.6,0.8,1,0.8c0.6,0,1.2-0.2,1.9-0.6c0.6-0.4,1.2-0.9,1.8-1.5
		c0.6-0.6,1.1-1.2,1.6-1.9c0.5-0.7,0.9-1.2,1.1-1.7c0.1-0.2,0.3-0.5,0.5-0.8s0.5-0.5,0.7-0.5c0.2,0,0.4,0.1,0.5,0.3
		c0.1,0.2,0.1,0.4,0.1,0.6c0,0.3-0.1,0.6-0.3,0.9s-0.4,0.6-0.5,0.8c-0.4,0.7-0.9,1.4-1.5,2.2s-1.2,1.5-1.9,2.1
		c-0.7,0.6-1.4,1.2-2.2,1.6c-0.8,0.4-1.6,0.7-2.5,0.7c-0.7,0-1.3-0.2-1.8-0.7c-0.5-0.5-0.9-1-1.2-1.7s-0.6-1.3-0.8-2
		c-0.2-0.7-0.3-1.4-0.4-1.9C91.8,29.8,91.3,30.3,90.7,30.9z M89.1,24.1c-0.9,0.6-1.7,1.3-2.4,2.2s-1.2,1.8-1.7,2.8
		c-0.4,1-0.6,2-0.6,2.8c0,0.1,0,0.3,0,0.5c0,0.2,0.2,0.3,0.4,0.3c0.4,0,1-0.2,1.7-0.7c0.7-0.5,1.4-1.1,2.2-1.7s1.4-1.3,2-2
		s1-1.2,1.2-1.5c-0.1-0.6-0.1-1.2-0.1-1.8c0-0.6,0-1.2,0-1.8C90.9,23.2,90,23.5,89.1,24.1z M95,23.6c0.6-1.2,1.1-2.5,1.8-4.1
		c0.6-1.5,1.2-3.1,1.8-4.8c0.5-1.6,1-3.2,1.3-4.8c0.4-1.6,0.5-3,0.5-4.3c0-0.1,0-0.1,0-0.2c0-0.1,0-0.3,0-0.4s-0.1-0.3-0.1-0.4
		c-0.1-0.1-0.1-0.1-0.2-0.1c-0.1,0-0.3,0.1-0.4,0.2c-0.1,0.1-0.2,0.2-0.3,0.3c-0.4,0.4-0.7,1.1-1.1,2c-0.4,0.9-0.7,1.9-1,3.1
		c-0.3,1.2-0.6,2.4-0.9,3.7c-0.3,1.3-0.5,2.6-0.7,3.8c-0.2,1.2-0.4,2.3-0.5,3.3c-0.1,1-0.2,1.8-0.2,2.4V23.6z"/>
</g>
</svg>
