<svg id="Layer_2" data-name="Layer 2" xmlns="http://www.w3.org/2000/svg" viewBox="0 0 486.7 486.7"><defs><style>.cls-1{fill:#fff;}</style></defs><title>Bank</title><rect class="cls-1" x="66.01" y="168.35" width="39.69" height="220" rx="8.5" ry="8.5"/><rect class="cls-1" x="171.01" y="168.35" width="39.69" height="220" rx="8.5" ry="8.5"/><rect class="cls-1" x="276.01" y="168.35" width="39.69" height="220" rx="8.5" ry="8.5"/><rect class="cls-1" x="381.01" y="168.35" width="39.69" height="220" rx="8.5" ry="8.5"/><rect class="cls-1" x="228.04" y="225.35" width="30.61" height="426" rx="5.67" ry="5.67" transform="translate(681.7 195) rotate(90)"/><rect class="cls-1" x="236.7" y="-46.3" width="13.31" height="394" rx="5.67" ry="5.67" transform="translate(394.04 -92.65) rotate(90)"/><rect class="cls-1" x="236.26" y="208.7" width="14.17" height="394" rx="5.67" ry="5.67" transform="translate(649.04 162.35) rotate(90)"/><path class="cls-1" d="M424,116.92l-177-84a8.56,8.56,0,0,0-7.3,0l-177,84c-8.19,3.88-5.42,16.18,3.65,16.18h354C429.42,133.1,432.19,120.8,424,116.92Zm-180.65-4.57a22,22,0,1,1,22-22A22,22,0,0,1,243.35,112.35Z"/></svg>