<?xml version="1.0" encoding="iso-8859-1"?>
<!-- Generator: Adobe Illustrator 19.0.0, SVG Export Plug-In . SVG Version: 6.00 Build 0)  -->
<svg version="1.1" id="Layer_1" xmlns="http://www.w3.org/2000/svg" xmlns:xlink="http://www.w3.org/1999/xlink" x="0px" y="0px"
	 viewBox="0 0 512 512" style="enable-background:new 0 0 512 512;" xml:space="preserve">
<g>
	<g>
		<g>
			<path d="M467,422h-45V105C422,47.106,373.233,0,315,0h-45c-36.22,0-66.522,25.808-73.491,60H195c-24.813,0-45,20.187-45,45
				v16.076C99.183,128.377,60,172.195,60,225v139.58c-4.695-1.665-9.741-2.58-15-2.58c-24.813,0-45,20.187-45,45v60
				c0,24.813,20.187,45,45,45c20.723,0,38.209-14.085,43.414-33.181C93.551,480.863,99.143,482,105,482h195v15
				c0,8.284,6.716,15,15,15h182c8.284,0,15-6.716,15-15v-30C512,442.187,491.813,422,467,422z M60,467c0,8.271-6.729,15-15,15
				s-15-6.729-15-15v-60c0-8.271,6.729-15,15-15s15,6.729,15,15C60,413.359,60,460.641,60,467z M270,30h45c41.738,0,77,34.346,77,75
				v259.57c-10.503-3.724-21.887-3.294-32,0.595V225c0-52.805-39.183-96.623-90-103.924V105c0-23.956-18.817-43.594-42.446-44.923
				C233.724,42.579,250.417,30,270,30z M392,407v15h-32v-15c0-7.71,8.262-15,17-15C385.271,392,392,398.729,392,407z M180,105
				c0-8.271,6.729-15,15-15h30c8.271,0,15,6.729,15,15v15h-60V105z M302.58,452H105c-8.271,0-15-6.729-15-15v-30V225
				c0-41.355,33.645-75,75-75h90c41.355,0,75,33.645,75,75v199.58C317.236,429.107,307.107,439.236,302.58,452z M482,482H330v-15
				c0-8.271,6.729-15,15-15h122c8.271,0,15,6.729,15,15V482z"/>
			<path d="M210,302c-33.084,0-60,26.916-60,60s26.916,60,60,60s60-26.916,60-60S243.084,302,210,302z M210,392
				c-16.542,0-30-13.458-30-30s13.458-30,30-30s30,13.458,30,30S226.542,392,210,392z"/>
			<path d="M255,180h-90c-8.284,0-15,6.716-15,15s6.716,15,15,15h90c8.284,0,15-6.716,15-15S263.284,180,255,180z"/>
			<path d="M255,240h-90c-8.284,0-15,6.716-15,15s6.716,15,15,15h90c8.284,0,15-6.716,15-15S263.284,240,255,240z"/>
		</g>
	</g>
</g>
<g>
</g>
<g>
</g>
<g>
</g>
<g>
</g>
<g>
</g>
<g>
</g>
<g>
</g>
<g>
</g>
<g>
</g>
<g>
</g>
<g>
</g>
<g>
</g>
<g>
</g>
<g>
</g>
<g>
</g>
</svg>
