<svg id="Layer_2" data-name="Layer 2" xmlns="http://www.w3.org/2000/svg" viewBox="0 0 486.7 486.7"><defs><style>.cls-1{fill:#fff;}</style></defs><title>Clock</title><path class="cls-1" d="M242.35,62.35A183,183,0,1,1,113,116a181.79,181.79,0,0,1,129.4-53.6m0-28c-116.53,0-211,94.47-211,211s94.47,211,211,211,211-94.47,211-211-94.47-211-211-211Z"/><path class="cls-1" d="M192.45,220.37a7.25,7.25,0,0,0,3.06,9.79l45.92,24.05,2.09,1.09,95.63-67.13.07,0a7.25,7.25,0,0,0-8.33-11.88h0L242.4,238.36l-40.16-21.05h0A7.26,7.26,0,0,0,192.45,220.37Z"/><rect class="cls-1" x="94.53" y="218" width="14.17" height="56.69" rx="5.67" ry="5.67" transform="translate(347.97 144.73) rotate(90)"/><rect class="cls-1" x="377.99" y="218" width="14.17" height="56.69" rx="5.67" ry="5.67" transform="translate(631.43 -138.73) rotate(90)"/><rect class="cls-1" x="236.26" y="76.27" width="14.17" height="56.69" rx="5.67" ry="5.67" transform="translate(486.7 209.24) rotate(180)"/><rect class="cls-1" x="236.26" y="359.74" width="14.17" height="56.69" rx="5.67" ry="5.67" transform="translate(486.7 776.17) rotate(180)"/></svg>