<svg id="Layer_2" data-name="Layer 2" xmlns="http://www.w3.org/2000/svg" viewBox="0 0 486.7 486.7"><defs><style>.cls-1{fill:#fff;}</style></defs><title>Hoover 1</title><path class="cls-1" d="M265.35,223.93V344a82.87,82.87,0,0,0-70.75,12.84V251a4.25,4.25,0,1,0-8.5,0V364a82.92,82.92,0,0,0-21.69,34.39h-5.06v-11h-9v-11h22v-232h13.42A79.58,79.58,0,0,1,265.35,223.93Z"/><path class="cls-1" d="M364.93,411.75V443c0,2.71-1.37,4.9-3.08,4.9H322.21a80.94,80.94,0,0,0,3.71-27.9,79.92,79.92,0,0,0-9.32-34.37L362.72,407C364,407.64,364.93,409.57,364.93,411.75Z"/><path class="cls-1" d="M243,400.52A17.5,17.5,0,1,1,225.5,418,17.52,17.52,0,0,1,243,400.52m0-18.84A36.34,36.34,0,1,0,279.33,418,36.34,36.34,0,0,0,243,381.68Z"/><path class="cls-1" d="M319.87,418.72a76.71,76.71,0,0,1-4.47,29.22H282a4,4,0,0,1-3.36-6.27,42.74,42.74,0,1,0-71.23,0,4,4,0,0,1-3.31,6.29H171.3a76.59,76.59,0,1,1,148.57-29.22Z"/><path class="cls-1" d="M194.28,37.35a8,8,0,0,0-7.93-7h-65a8,8,0,0,0-2.87,15.46L172.35,80.4v110h22v-153Zm-45.16,9h23.23V61.26Z"/><path d="M417.35,37.35v1a8.26,8.26,0,0,0-.06-1Z"/></svg>