<svg id="Layer_2" data-name="Layer 2" xmlns="http://www.w3.org/2000/svg" viewBox="0 0 486.7 486.7"><defs><style>.cls-1{fill:#fff;}.cls-2{fill:none;stroke:#fff;stroke-linecap:round;stroke-miterlimit:10;stroke-width:18px;}</style></defs><title>Laptop</title><path class="cls-1" d="M406.83,299.35h-328c-4,0-7.6,1.78-8.77,4.38L20.68,413.38c-1.78,4,2.62,8,8.77,8H457.18c6.17,0,10.58-4,8.75-8L415.58,303.7C414.39,301.11,410.84,299.35,406.83,299.35Z"/><rect class="cls-1" x="16.35" y="432.35" width="453" height="21" rx="8.5" ry="8.5"/><polyline class="cls-2" points="209.76 175.47 232.39 191.25 286.93 137.45"/><path class="cls-1" d="M85.64,272.06v-.42H401.06v.42Zm194.91-225c0-.14,0-.28,0-.42H401.06v.42Zm-194.91,0v-.42H208.11l0,.42Z"/><path class="cls-1" d="M407.85,31.35h-329a8.5,8.5,0,0,0-8.5,8.5v239a8.51,8.51,0,0,0,8.5,8.51h329a8.51,8.51,0,0,0,8.5-8.51v-239a8.5,8.5,0,0,0-8.5-8.5Zm-182.5,16a2,2,0,0,1,0-4h38a2,2,0,0,1,0,4Zm-124.5,209v-194h285v194Z"/></svg>