<svg id="Layer_2" data-name="Layer 2" xmlns="http://www.w3.org/2000/svg" viewBox="0 0 486.7 486.7"><defs><style>.cls-1{fill:#fff;}</style></defs><title>Mobile</title><path class="cls-1" d="M361.85,31.35h-237a8.5,8.5,0,0,0-8.5,8.5v406a8.51,8.51,0,0,0,8.5,8.51h237a8.51,8.51,0,0,0,8.5-8.51v-406A8.5,8.5,0,0,0,361.85,31.35Zm-137.5,12h38a2,2,0,0,1,0,4h-38a2,2,0,0,1,0-4Zm19,403a15,15,0,1,1,15-15A15,15,0,0,1,243.35,446.35Zm99-38h-198v-348h198Z"/><polyline class="cls-1" points="204.76 254.47 227.39 270.25 281.93 216.45"/><path class="cls-1" d="M228.38,281.91l-28.76-20.06a9,9,0,0,1,10.29-14.77l16.49,11.5L275.61,210a9,9,0,1,1,12.64,12.82Z"/></svg>