<svg id="Layer_2" data-name="Layer 2" xmlns="http://www.w3.org/2000/svg" viewBox="0 0 486.7 486.7"><defs><style>.cls-1{fill:#fff;}.cls-2{fill:none;stroke:#fff;stroke-linecap:round;stroke-miterlimit:10;stroke-width:18px;}</style></defs><title>Money</title><path class="cls-1" d="M373.85,268.85h-9.5v-72a8.51,8.51,0,0,0-8.5-8.5H312.32l0,.12h-81l0-.12h-98L257.05,143v15a41.45,41.45,0,0,1,30.3.28V113c0-5.31-3.94-9.61-8.81-9.61L37.16,188.1a8.23,8.23,0,0,0-4.65,1.45l-.06,0a9.84,9.84,0,0,0-4.1,8.13V445.85a8.51,8.51,0,0,0,8.5,8.5h319a8.51,8.51,0,0,0,8.5-8.5v-93h9.5a8.51,8.51,0,0,0,8.5-8.5v-67A8.51,8.51,0,0,0,373.85,268.85Zm-37.5,157.5h-280v-210h280v52.5h-64.5a8.51,8.51,0,0,0-8.5,8.5v67a8.51,8.51,0,0,0,8.5,8.5h64.5Zm28-91.5h-83v-48h83Z"/><path class="cls-1" d="M378.85,31.35a72.5,72.5,0,1,0,72.5,72.5A72.5,72.5,0,0,0,378.85,31.35Zm28.66,115.53H349v-7c9.44-4.8,16.07-14.1,16.07-24.68a60.72,60.72,0,0,0-.7-9.87H349.84V96.4H363a93.32,93.32,0,0,1-1.56-15.22c0-16.64,11.42-27.5,27.07-27.5,7.34,0,12.41,1.69,15.37,3.53L401,66.51a25.65,25.65,0,0,0-12.55-2.82c-11,0-15.5,7.62-15.5,17.63a75.25,75.25,0,0,0,1.69,15.08H395v8.88H375.79c.42,5.36.7,10.72-.57,15.8a29.34,29.34,0,0,1-9.73,15.22v.28h42Z"/><line class="cls-2" x1="88.35" y1="240.35" x2="88.35" y2="404.35"/><path class="cls-1" d="M349.35,302.85a8,8,0,1,0,8,8,8,8,0,0,0-8-8Z"/><path class="cls-1" d="M307.19,186.35a36,36,0,0,0-70.68,0Z"/></svg>