<svg id="Layer_2" data-name="Layer 2" xmlns="http://www.w3.org/2000/svg" viewBox="0 0 486.7 486.7"><defs><style>.cls-1,.cls-2{fill:#fff;}.cls-1{stroke:#fff;stroke-miterlimit:10;stroke-width:6px;}</style></defs><title>Mower 1</title><path class="cls-1" d="M53,43.72l47,3.79L213.35,318.35l9.77,1.56L105.92,39.46l-.54-.05L53.73,35.24A4.25,4.25,0,0,0,53,43.72Z"/><path class="cls-2" d="M394.35,364v4a5.72,5.72,0,0,1-5.1,5.64A42,42,0,0,0,365,445.35H221.29a54,54,0,1,0-67.88,0H119.35q-3,0-6-.21a84,84,0,0,1-78-85.15c0-.1,0-.2,0-.3s0-.45,0-.68V288.69a11.34,11.34,0,0,1,11.34-11.34h73.69a83.94,83.94,0,0,1,72.45,43.26l196.92,37.85A5.66,5.66,0,0,1,394.35,364Z"/><path class="cls-2" d="M364.27,349.57A65,65,0,0,0,252.17,328Z"/><path class="cls-2" d="M394.35,396.57a18.78,18.78,0,1,1-18.78,18.78,18.8,18.8,0,0,1,18.78-18.78m0-20.22a39,39,0,1,0,39,39,39,39,0,0,0-39-39Z"/><path class="cls-2" d="M187.35,378.79a24.56,24.56,0,1,1-24.56,24.56,24.58,24.58,0,0,1,24.56-24.56m0-26.44a51,51,0,1,0,51,51,51,51,0,0,0-51-51Z"/></svg>