<svg id="Layer_2" data-name="Layer 2" xmlns="http://www.w3.org/2000/svg" viewBox="0 0 486.7 486.7"><defs><style>.cls-1{fill:#fff;}</style></defs><title>Staff</title><path class="cls-1" d="M380.78,220.85c-19.81,31.34-49.45,51.26-82.59,51.26-32.84,0-62.26-19.57-82.05-50.42a140.72,140.72,0,0,0-15.27,10.95q.3-3.37.3-6.83c0-41.07-32-74.36-62.83-74.36s-62.82,33.29-62.82,74.36,32,74.37,62.82,74.37a46.89,46.89,0,0,0,14.07-2.24,269.32,269.32,0,0,0-10.26,25.68c-1.26.09-2.53.13-3.81.13-23.48,0-44.51-14-58.67-36.05C8.45,331.85,12.54,453.35,12.54,453.35H474.08S481.28,281.87,380.78,220.85ZM122.68,430.19H36.48a280.08,280.08,0,0,1,5.75-39.1c4.14-18.5,10-34.71,17.46-48.2a107.55,107.55,0,0,1,16.53-22.77c16.65,16.45,37.19,25.89,58.95,26.72A420.73,420.73,0,0,0,122.68,430.19ZM138.34,277c-8.34,0-17.9-5.21-25.59-13.93a56.38,56.38,0,0,1,0-74.55c7.69-8.73,17.25-13.93,25.59-13.93s17.9,5.2,25.59,13.93a56.38,56.38,0,0,1,0,74.55C156.24,271.81,146.68,277,138.34,277ZM153,423.5a396.28,396.28,0,0,1,8.28-57.67q2.82-12.68,6.42-24.31a243.61,243.61,0,0,1,13.9-35.46q2.11-4.31,4.35-8.37a150.76,150.76,0,0,1,25.35-34.26C235.55,288.21,266,302,298.19,302c32.59,0,63.36-14.06,87.74-39.4a147.27,147.27,0,0,1,25.31,34.1c10.5,19.08,18.72,42.06,24.41,68.3a394.08,394.08,0,0,1,8,58.54Z"/><path class="cls-1" d="M298.19,56.24c13.72,0,29.14,8.2,41.25,21.95a86.13,86.13,0,0,1,0,113.89C327.33,205.83,311.91,214,298.19,214s-29.14-8.2-41.25-21.95a86.16,86.16,0,0,1,0-113.89c12.11-13.75,27.54-21.95,41.25-21.95m0-25.1c-43.07,0-87.86,46.56-87.86,104s44.79,104,87.86,104,87.87-46.57,87.87-104-44.79-104-87.87-104Z"/></svg>