<?xml version="1.0" encoding="iso-8859-1"?>
<!-- Generator: Adobe Illustrator 19.0.0, SVG Export Plug-In . SVG Version: 6.00 Build 0)  -->
<svg version="1.1" id="Capa_1" xmlns="http://www.w3.org/2000/svg" xmlns:xlink="http://www.w3.org/1999/xlink" x="0px" y="0px"
	 viewBox="0 0 512 512" style="enable-background:new 0 0 512 512;" xml:space="preserve">
<g>
	<g>
		<path d="M510.471,395.963c-3.468-19.322-12.664-36.896-26.591-50.824c-13.928-13.927-31.503-23.123-50.824-26.591
			c-17.15-3.077-34.595-1.488-50.767,4.585l-66.317-66.318c-2.944-2.942-7.716-2.942-10.659,0c-2.943,2.944-2.943,7.716,0,10.659
			l69.852,69.852c2.196,2.195,5.514,2.821,8.355,1.573c30.749-13.475,65.959-6.845,89.702,16.899
			c21.03,21.029,28.637,51.052,20.738,79.004l-66.924-66.925c-2.944-2.942-7.716-2.942-10.659,0l-45.477,45.477
			c-2.943,2.944-2.943,7.716,0,10.659l66.925,66.924c-27.95,7.898-57.976,0.291-79.004-20.737
			c-23.743-23.745-30.377-58.954-16.899-89.703c1.246-2.843,0.621-6.16-1.573-8.355l-62.818-62.818
			c-2.944-2.942-7.716-2.942-10.659,0c-2.943,2.944-2.943,7.716,0,10.659l59.284,59.284c-6.073,16.173-7.662,33.615-4.584,50.768
			c3.468,19.321,12.664,36.896,26.591,50.824c13.928,13.927,31.504,23.123,50.824,26.591c5.694,1.022,11.418,1.528,17.119,1.528
			c13.192,0,26.252-2.719,38.469-8.073c4.773-2.091,5.993-8.542,2.304-12.233l-69.991-69.987l34.818-34.818l69.988,69.989
			c3.693,3.689,10.139,2.468,12.233-2.304C511.594,434.056,513.857,414.833,510.471,395.963z"/>
	</g>
</g>
<g>
	<g>
		<path d="M251.62,192.465l-61.231-61.232c6.073-16.173,7.662-33.615,4.584-50.768c-3.468-19.321-12.664-36.896-26.591-50.824
			c-13.928-13.927-31.503-23.123-50.824-26.591C98.688-0.334,79.466,1.928,61.97,9.595c-4.772,2.09-5.994,8.543-2.304,12.233
			l69.99,69.988l-34.818,34.818L24.849,56.645c-3.692-3.69-10.139-2.468-12.233,2.304c-7.668,17.495-9.931,36.718-6.545,55.588
			c3.469,19.322,12.664,36.897,26.592,50.825c13.927,13.927,31.503,23.123,50.823,26.591c17.149,3.078,34.594,1.489,50.767-4.585
			l51.555,51.556c3.066,3.064,8.241,2.86,11.06-0.433c2.525-2.95,2.343-7.482-0.4-10.227l-55.089-55.089
			c-2.196-2.194-5.512-2.819-8.355-1.573c-30.748,13.475-65.96,6.843-89.702-16.899c-21.03-21.029-28.637-51.052-20.738-79.004
			l66.925,66.925c2.944,2.942,7.716,2.942,10.659,0l45.477-45.477c2.901-2.903,2.901-7.756,0-10.659L78.72,19.564
			c27.95-7.898,57.976-0.292,79.004,20.737c23.743,23.745,30.377,58.954,16.899,89.703c-1.246,2.843-0.621,6.16,1.573,8.355
			l64.765,64.765c2.904,2.902,7.756,2.903,10.659,0C254.524,200.221,254.523,195.368,251.62,192.465z"/>
	</g>
</g>
<g>
	<g>
		<path d="M501.74,31.482L479.001,8.744c-2.497-2.495-6.394-2.925-9.376-1.028l-62.528,39.789c-1.152,0.733-2.084,1.766-2.695,2.988
			l-22.194,44.384L220.428,256.659h-65.091c-1.976,0-3.933,0.81-5.33,2.207L13.576,395.295c-0.818,0.819-1.454,1.847-1.821,2.946
			L0.387,432.349c-0.902,2.708-0.198,5.695,1.821,7.714l68.215,68.215c1.999,1.998,5.032,2.713,7.714,1.821l34.107-11.368
			c1.101-0.367,2.124-1,2.946-1.821l136.43-136.43c1.398-1.401,2.209-3.355,2.207-5.335v-65.369
			c0.473-0.297,0.925-0.646,1.338-1.058l160.443-160.442l44.381-22.191c1.222-0.61,2.254-1.542,2.988-2.695l39.792-62.531
			C504.665,37.877,504.237,33.98,501.74,31.482z M155.335,274.853l23.448,23.448L53.013,424.073l-23.448-23.448L155.335,274.853z
			 M77.787,494.323l-61.626-61.626l6.039-18.119l73.707,73.707L77.787,494.323z M109.859,480.919l-23.448-23.448l76.826-76.825
			c2.943-2.944,2.943-7.716,0-10.659c-2.943-2.941-7.715-2.943-10.659,0l-76.826,76.825l-12.079-12.079l125.77-125.771
			l12.079,12.079l-24.158,24.158c-2.743,2.744-2.926,7.276-0.4,10.227c2.818,3.292,7.994,3.496,11.06,0.432l24.158-24.158
			l23.448,23.448L109.859,480.919z M238.752,336.952l-65.22-65.22h46.897l18.323,18.323V336.952z M246.289,276.274l-12.079-12.079
			l154.193-154.194l12.08,12.08L246.289,276.274z M451.38,93.534L412.63,112.91l-15.056-15.056l19.378-38.753l55.666-35.422
			l14.187,14.187L451.38,93.534z"/>
	</g>
</g>
<g>
</g>
<g>
</g>
<g>
</g>
<g>
</g>
<g>
</g>
<g>
</g>
<g>
</g>
<g>
</g>
<g>
</g>
<g>
</g>
<g>
</g>
<g>
</g>
<g>
</g>
<g>
</g>
<g>
</g>
</svg>
