<svg id="Layer_2" data-name="Layer 2" xmlns="http://www.w3.org/2000/svg" viewBox="0 0 486.7 486.7"><defs><style>.cls-1{fill:#fff;}</style></defs><title>User</title><path class="cls-1" d="M331.09,262.77a147.27,147.27,0,0,1,25.31,34.1c10.5,19.08,18.72,42.06,24.41,68.3a392.59,392.59,0,0,1,7.94,58.54H98.16A396.28,396.28,0,0,1,106.44,366c5.83-26.12,14.13-49.05,24.67-68.14a151,151,0,0,1,25.35-34.27c24.25,24.79,54.72,38.54,86.89,38.54,32.59,0,63.36-14.06,87.74-39.4m-5.16-41.71c-19.8,31.34-49.44,51.25-82.58,51.25-32.84,0-62.26-19.56-82-50.41C61.7,283.63,67.41,453.56,67.41,453.56H419.24s7.2-171.48-93.31-232.5Z"/><path class="cls-1" d="M243.35,56.45c13.72,0,29.14,8.21,41.25,22a86.13,86.13,0,0,1,0,113.89c-12.11,13.75-27.53,22-41.25,22s-29.14-8.2-41.25-22a86.13,86.13,0,0,1,0-113.89c12.11-13.74,27.53-22,41.25-22m0-25.1c-43.08,0-87.86,46.56-87.86,104s44.78,104,87.86,104,87.86-46.57,87.86-104-44.78-104-87.86-104Z"/></svg>